<svg width="200" height="200" viewBox="0 0 200 200" fill="none" xmlns="http://www.w3.org/2000/svg">
<rect x="0" width="200" height="200" fill="#F3F3F3"/>
<path d="M170.114 148.875C166.429 140.148 161.083 132.221 154.372 125.535C147.681 118.83 139.755 113.484 131.032 109.793C130.954 109.754 130.875 109.734 130.797 109.695C142.965 100.906 150.875 86.5898 150.875 70.4375C150.875 43.6797 129.196 22 102.438 22C75.6802 22 54.0005 43.6797 54.0005 70.4375C54.0005 86.5898 61.9106 100.906 74.0786 109.715C74.0005 109.754 73.9224 109.773 73.8442 109.812C65.0942 113.504 57.2427 118.797 50.5044 125.555C43.7995 132.245 38.4537 140.171 34.7622 148.895C31.1357 157.435 29.1798 166.591 29.0005 175.867C28.9953 176.076 29.0318 176.283 29.108 176.477C29.1842 176.671 29.2985 176.848 29.4441 176.997C29.5897 177.147 29.7637 177.265 29.9559 177.346C30.148 177.427 30.3545 177.469 30.563 177.469H42.2817C43.1411 177.469 43.8247 176.785 43.8442 175.945C44.2349 160.867 50.2895 146.746 60.9927 136.043C72.0669 124.969 86.7739 118.875 102.438 118.875C118.102 118.875 132.809 124.969 143.883 136.043C154.586 146.746 160.641 160.867 161.032 175.945C161.051 176.805 161.735 177.469 162.594 177.469H174.313C174.522 177.469 174.728 177.427 174.92 177.346C175.112 177.265 175.286 177.147 175.432 176.997C175.578 176.848 175.692 176.671 175.768 176.477C175.844 176.283 175.881 176.076 175.875 175.867C175.68 166.531 173.747 157.449 170.114 148.875ZM102.438 104.031C93.4731 104.031 85.0356 100.535 78.688 94.1875C72.3403 87.8398 68.8442 79.4023 68.8442 70.4375C68.8442 61.4727 72.3403 53.0352 78.688 46.6875C85.0356 40.3398 93.4731 36.8438 102.438 36.8438C111.403 36.8438 119.84 40.3398 126.188 46.6875C132.536 53.0352 136.032 61.4727 136.032 70.4375C136.032 79.4023 132.536 87.8398 126.188 94.1875C119.84 100.535 111.403 104.031 102.438 104.031Z" fill="#CAC7C7"/>
</svg>
