<svg width="100" height="100" viewBox="0 0 100 100" fill="none" xmlns="http://www.w3.org/2000/svg">
<circle cx="50" cy="50" r="50" fill="white"/>
<path d="M39 35.5C39 42.9558 32.9558 49 25.5 49C18.0442 49 12 42.9558 12 35.5C12 28.0442 18.0442 22 25.5 22C32.9558 22 39 28.0442 39 35.5Z" fill="#FFCD00"/>
<path d="M87.5 67.5C87.5 74.9558 81.4558 81 74 81C66.5442 81 60.5 74.9558 60.5 67.5C60.5 60.0442 66.5442 54 74 54C81.4558 54 87.5 60.0442 87.5 67.5Z" fill="#FFCD00"/>
<path d="M26 34C52 16.5 69 37.9997 74 67.9995" stroke="#4F6BD8" stroke-width="10"/>
</svg>
